# xmcd
#
# Track frame offsets: 
#        150
#        14024
#        23829
#        37289
#        50564
#        63290
#        74474
#        86573
#        97480
#        110210
#        123032
#        135149
#        146848
#        159253
#        172327
#        185106
#        196343
#        209418
#        222603
#        233458
#        244162
#        255503
#        267181
#        280337
#
# Disc length: 3913 seconds
#
# Revision: 0
# Processed by: cddbd v1.5.2PL0 Copyright (c) Steve Scherf et al.
# Submitted via: ExactAudioCopy v1.0b4
#
DISCID=780f4718
DTITLE=Howlin' Wolf - Chester Burnett A.K.A. Howlin' Wolf (DLP)
DYEAR=1972
DGENRE=Blues
TTITLE0=Smokestack Lightnin'
TTITLE1=Down In The Bottom
TTITLE2=No Place To Go
TTITLE3=Moanin' At Midnight
TTITLE4=Forty-Four
TTITLE5=My Country Sugar Mama
TTITLE6=Spoonful
TTITLE7=The Red Rooster
TTITLE8=Moanin' For My Baby
TTITLE9=I Asked For Water
TTITLE10=How Many More Years
TTITLE11=Louise
TTITLE12=Killing Floor
TTITLE13=Evil (Is Goin' On)
TTITLE14=Back Door Man
TTITLE15=Sitting On Top Of The World
TTITLE16=Tail Dragger
TTITLE17=Tell Me
TTITLE18=Wang Dang Doodle
TTITLE19=Who's Been Talkin'
TTITLE20=Built For Comfort
TTITLE21=Ooh Baby, Hold Me
TTITLE22=Baby, How Long
TTITLE23=Three Hundred Pounds Of Joy
EXTD=
EXTT0=
EXTT1=
EXTT2=
EXTT3=
EXTT4=
EXTT5=
EXTT6=
EXTT7=
EXTT8=
EXTT9=
EXTT10=
EXTT11=
EXTT12=
EXTT13=
EXTT14=
EXTT15=
EXTT16=
EXTT17=
EXTT18=
EXTT19=
EXTT20=
EXTT21=
EXTT22=
EXTT23=
PLAYORDER=
